<svg xmlns="http://www.w3.org/2000/svg" xmlns:xlink="http://www.w3.org/1999/xlink" width="1600" zoomAndPan="magnify" viewBox="0 0 1200 749.999995" height="1000" preserveAspectRatio="xMidYMid meet" version="1.0"><defs><clipPath id="49571be5f0"><path d="M 0 261 L 429 261 L 429 391 L 0 391 Z M 0 261 " clip-rule="nonzero"/></clipPath><clipPath id="e3a99dc0f4"><path d="M -101.015625 262.121094 L 256.226562 69.734375 L 428.699219 389.992188 L 71.457031 582.382812 Z M -101.015625 262.121094 " clip-rule="nonzero"/></clipPath><clipPath id="3baeb333c1"><path d="M 256.070312 69.816406 L -101.167969 262.203125 L 71.304688 582.464844 L 428.542969 390.078125 Z M 256.070312 69.816406 " clip-rule="nonzero"/></clipPath><clipPath id="21c5d8ee36"><path d="M 425 388 L 955 388 L 955 518 L 425 518 Z M 425 388 " clip-rule="nonzero"/></clipPath><clipPath id="45d5a5848a"><path d="M 425.230469 388.832031 L 782.46875 196.445312 L 954.941406 516.707031 L 597.703125 709.09375 Z M 425.230469 388.832031 " clip-rule="nonzero"/></clipPath><clipPath id="1765d9c5bd"><path d="M 782.316406 196.527344 L 425.074219 388.914062 L 597.546875 709.175781 L 954.789062 516.789062 Z M 782.316406 196.527344 " clip-rule="nonzero"/></clipPath><clipPath id="227ce41b3a"><path d="M 950 513 L 1200 513 L 1200 643 L 950 643 Z M 950 513 " clip-rule="nonzero"/></clipPath><clipPath id="d6dd457403"><path d="M 950.25 513.695312 L 1307.492188 321.308594 L 1479.964844 641.570312 L 1122.722656 833.957031 Z M 950.25 513.695312 " clip-rule="nonzero"/></clipPath><clipPath id="c47fb59458"><path d="M 1307.335938 321.390625 L 950.097656 513.777344 L 1122.570312 834.039062 L 1479.808594 641.652344 Z M 1307.335938 321.390625 " clip-rule="nonzero"/></clipPath></defs><g clip-path="url(#49571be5f0)"><g clip-path="url(#e3a99dc0f4)"><g clip-path="url(#3baeb333c1)"><path fill="#466284" d="M -99.84375 261.488281 C -96.570312 264.160156 -93.386719 267.050781 -90.3125 269.847656 C -85.160156 274.773438 -79.65625 279.273438 -73.808594 283.347656 C -44.089844 302.882812 -14.503906 292.835938 16.820312 282.203125 C 32.585938 276.851562 48.882812 271.316406 64.984375 270.078125 C 90.90625 268.089844 108.164062 273.9375 129.210938 284.710938 C 143.472656 292.011719 157.332031 301.273438 170.734375 310.230469 C 197.757812 328.285156 225.699219 346.957031 258.777344 350.949219 C 275.460938 352.964844 292.597656 350.882812 309.171875 348.867188 C 327.285156 346.667969 346.011719 344.390625 364.25 347.445312 C 387.050781 351.261719 408.878906 364.613281 424.128906 384.078125 C 425.671875 386.050781 427.164062 388.097656 428.550781 390.160156 L 427.355469 390.964844 C 425.992188 388.929688 424.523438 386.910156 423 384.964844 C 407.964844 365.777344 386.464844 352.621094 364.011719 348.863281 C 345.980469 345.84375 327.355469 348.105469 309.34375 350.292969 C 292.6875 352.316406 275.460938 354.410156 258.609375 352.375 C 225.183594 348.339844 197.097656 329.574219 169.9375 311.425781 C 156.570312 302.492188 142.746094 293.257812 128.554688 285.992188 C 107.734375 275.332031 90.679688 269.546875 65.09375 271.511719 C 49.171875 272.734375 32.960938 278.242188 17.28125 283.5625 C -12.992188 293.839844 -44.296875 304.46875 -74.597656 284.546875 C -80.511719 280.433594 -86.070312 275.886719 -91.277344 270.90625 C -94.339844 268.125 -97.503906 265.25 -100.753906 262.601562 L -99.84375 261.488281 " fill-opacity="1" fill-rule="nonzero"/></g></g></g><g clip-path="url(#21c5d8ee36)"><g clip-path="url(#45d5a5848a)"><g clip-path="url(#1765d9c5bd)"><path fill="#466284" d="M 426.398438 388.203125 C 429.675781 390.871094 432.855469 393.765625 435.933594 396.558594 C 441.085938 401.484375 446.585938 405.984375 452.4375 410.058594 C 482.152344 429.59375 511.738281 419.546875 543.066406 408.914062 C 558.828125 403.5625 575.125 398.03125 591.226562 396.792969 C 617.152344 394.800781 634.40625 400.648438 655.453125 411.425781 C 669.71875 418.726562 683.578125 427.988281 696.980469 436.941406 C 724 454.996094 751.941406 473.667969 785.023438 477.664062 C 801.707031 479.675781 818.84375 477.59375 835.417969 475.578125 C 853.527344 473.382812 872.257812 471.105469 890.492188 474.15625 C 913.292969 477.972656 935.121094 491.324219 950.375 510.789062 C 951.917969 512.765625 953.40625 514.808594 954.792969 516.875 L 953.601562 517.675781 C 952.234375 515.640625 950.765625 513.621094 949.242188 511.675781 C 934.210938 492.488281 912.707031 479.332031 890.257812 475.574219 C 872.226562 472.554688 853.601562 474.820312 835.589844 477.003906 C 818.933594 479.03125 801.707031 481.121094 784.851562 479.089844 C 751.425781 475.050781 723.339844 456.285156 696.179688 438.136719 C 682.8125 429.203125 668.988281 419.96875 654.796875 412.703125 C 633.980469 402.042969 616.925781 396.257812 591.335938 398.222656 C 575.417969 399.449219 559.207031 404.953125 543.523438 410.273438 C 513.253906 420.554688 481.949219 431.179688 451.648438 411.261719 C 445.734375 407.144531 440.171875 402.597656 434.964844 397.621094 C 431.90625 394.835938 428.742188 391.960938 425.492188 389.316406 L 426.398438 388.203125 " fill-opacity="1" fill-rule="nonzero"/></g></g></g><g clip-path="url(#227ce41b3a)"><g clip-path="url(#d6dd457403)"><g clip-path="url(#c47fb59458)"><path fill="#466284" d="M 951.421875 513.066406 C 954.695312 515.734375 957.875 518.628906 960.953125 521.421875 C 966.105469 526.347656 971.605469 530.847656 977.457031 534.921875 C 1007.171875 554.457031 1036.757812 544.410156 1068.085938 533.777344 C 1083.847656 528.425781 1100.148438 522.894531 1116.246094 521.65625 C 1142.171875 519.664062 1159.425781 525.511719 1180.476562 536.289062 C 1194.738281 543.589844 1208.597656 552.851562 1222 561.804688 C 1249.019531 579.859375 1276.960938 598.53125 1310.042969 602.527344 C 1326.726562 604.539062 1343.863281 602.457031 1360.4375 600.441406 C 1378.546875 598.246094 1397.277344 595.96875 1415.515625 599.019531 C 1438.316406 602.835938 1460.140625 616.1875 1475.394531 635.652344 C 1476.9375 637.628906 1478.429688 639.671875 1479.816406 641.738281 L 1478.621094 642.539062 C 1477.257812 640.503906 1475.785156 638.484375 1474.261719 636.539062 C 1459.230469 617.351562 1437.730469 604.195312 1415.277344 600.4375 C 1397.246094 597.417969 1378.621094 599.683594 1360.609375 601.867188 C 1343.953125 603.894531 1326.726562 605.984375 1309.871094 603.953125 C 1276.449219 599.914062 1248.359375 581.148438 1221.199219 563 C 1207.832031 554.066406 1194.007812 544.832031 1179.820312 537.566406 C 1159 526.90625 1141.945312 521.121094 1116.359375 523.085938 C 1100.4375 524.3125 1084.226562 529.816406 1068.546875 535.136719 C 1038.273438 545.417969 1006.96875 556.042969 976.667969 536.125 C 970.753906 532.007812 965.195312 527.460938 959.988281 522.484375 C 956.925781 519.699219 953.761719 516.824219 950.511719 514.179688 L 951.421875 513.066406 " fill-opacity="1" fill-rule="nonzero"/></g></g></g></svg>